<svg fill="#000000" xmlns="http://www.w3.org/2000/svg"  viewBox="0 0 60 48" width="49px" height="49px"><path d="M 7 0 C 5.346 0 4 1.346 4 3 L 4 8 L 1 8 C 0.448 8 0 8.448 0 9 L 0 13 C 0 13.552 0.448 14 1 14 L 4 14 L 4 19 C 4 20.654 5.346 22 7 22 C 8.654 22 10 20.654 10 19 L 10 14 L 12 14 L 12 16 C 12 17.301609 12.838749 18.402139 14 18.816406 L 14 42 L 13 42 C 12.448 42 12 42.448 12 43 L 12 46 L 1 46 C 0.448 46 0 46.448 0 47 C 0 47.552 0.448 48 1 48 L 13 48 L 17 48 L 19 48 C 19.552 48 20 47.552 20 47 C 20 46.448 19.552 46 19 46 L 18 46 L 18 43 C 18 42.448 17.552 42 17 42 L 16 42 L 16 18.816406 C 17.161251 18.402139 18 17.301609 18 16 L 18 14 L 42 14 L 42 16 C 42 17.301609 42.838749 18.402139 44 18.816406 L 44 42 L 43 42 C 42.448 42 42 42.448 42 43 L 42 46 L 41 46 C 40.448 46 40 46.448 40 47 C 40 47.552 40.448 48 41 48 L 43 48 L 47 48 L 49 48 C 49.552 48 50 47.552 50 47 C 50 46.448 49.552 46 49 46 L 48 46 L 48 43 C 48 42.448 47.552 42 47 42 L 46 42 L 46 18.816406 C 47.161251 18.402139 48 17.301609 48 16 L 48 14 L 50 14 L 50 19 C 50 20.654 51.346 22 53 22 C 54.654 22 56 20.654 56 19 L 56 14 L 59 14 C 59.552 14 60 13.552 60 13 L 60 9 C 60 8.448 59.552 8 59 8 L 56 8 L 56 3 C 56 1.346 54.654 0 53 0 C 51.346 0 50 1.346 50 3 L 50 8 L 48 8 L 48 5 C 48 4.448 47.552 4 47 4 L 43 4 C 42.448 4 42 4.448 42 5 L 42 8 L 18 8 L 18 5 C 18 4.448 17.552 4 17 4 L 13 4 C 12.448 4 12 4.448 12 5 L 12 8 L 10 8 L 10 3 C 10 1.346 8.654 0 7 0 z M 7 2 C 7.552 2 8 2.449 8 3 L 8 19 C 8 19.551 7.552 20 7 20 C 6.448 20 6 19.551 6 19 L 6 13 L 6 9 L 6 3 C 6 2.449 6.448 2 7 2 z M 53 2 C 53.552 2 54 2.449 54 3 L 54 9 L 54 13 L 54 19 C 54 19.551 53.552 20 53 20 C 52.448 20 52 19.551 52 19 L 52 13 L 52 9 L 52 3 C 52 2.449 52.448 2 53 2 z M 14 6 L 16 6 L 16 16 C 16 16.551 15.552 17 15 17 C 14.448 17 14 16.551 14 16 L 14 13 L 14 9 L 14 6 z M 44 6 L 46 6 L 46 16 C 46 16.551 45.552 17 45 17 C 44.448 17 44 16.551 44 16 L 44 13 L 44 9 L 44 6 z M 2 10 L 4 10 L 4 12 L 2 12 L 2 10 z M 10 10 L 12 10 L 12 12 L 10 12 L 10 10 z M 18 10 L 42 10 L 42 12 L 18 12 L 18 10 z M 48 10 L 50 10 L 50 12 L 48 12 L 48 10 z M 56 10 L 58 10 L 58 12 L 56 12 L 56 10 z M 21.697266 26 C 20.209266 26 19 27.209266 19 28.697266 L 19 33.302734 C 19 34.790734 20.209266 36 21.697266 36 L 22 36 L 22 47 C 22 47.552 22.448 48 23 48 C 23.552 48 24 47.552 24 47 L 24 36 L 36 36 L 36 47 C 36 47.552 36.448 48 37 48 C 37.552 48 38 47.552 38 47 L 38 36 L 38.302734 36 C 39.790734 36 41 34.790734 41 33.302734 L 41 28.697266 C 41 27.209266 39.790734 26 38.302734 26 L 21.697266 26 z M 21.697266 28 L 38.302734 28 C 38.687734 28 39 28.312266 39 28.697266 L 39 30 L 37 30 C 36.448 30 36 30.448 36 31 C 36 31.552 36.448 32 37 32 L 39 32 L 39 33.302734 C 39 33.687734 38.687734 34 38.302734 34 L 21.697266 34 C 21.312266 34 21 33.687734 21 33.302734 L 21 32 L 33 32 C 33.552 32 34 31.552 34 31 C 34 30.448 33.552 30 33 30 L 21 30 L 21 28.697266 C 21 28.312266 21.312266 28 21.697266 28 z M 14 44 L 16 44 L 16 46 L 14 46 L 14 44 z M 44 44 L 46 44 L 46 46 L 44 46 L 44 44 z M 55 46 C 54.448 46 54 46.448 54 47 C 54 47.552 54.448 48 55 48 L 59 48 C 59.552 48 60 47.552 60 47 C 60 46.448 59.552 46 59 46 L 55 46 z"/></svg>