<svg fill="#de3d4f" xmlns="http://www.w3.org/2000/svg"  viewBox="0 0 50 50" width="50px" height="50px"><path d="M 9.15625 2.109375 C 9.121094 2.105469 9.097656 2.113281 9.082031 2.125 C 8.664063 2.566406 10.414063 5.570313 14.304688 6.992188 C 17.34375 8.097656 21.902344 9.410156 24.390625 11.859375 C 24.691406 11.707031 25.070313 11.46875 25.339844 11.296875 C 26.035156 10.84375 26.871094 10.308594 27.84375 10.09375 C 22.9375 6.238281 16.449219 5.398438 14.230469 4.90625 C 12.375 4.496094 9.679688 2.195313 9.15625 2.109375 Z M 1.148438 5 C 1.113281 5 1.085938 5.007813 1.070313 5.023438 C 0.597656 5.523438 2.496094 8.296875 6.703125 9.867188 C 11.03125 11.480469 19 14 19 18 C 19 18 19.109375 18.015625 19.128906 18.019531 C 19.078125 18.027344 19.03125 18.042969 18.980469 18.046875 C 18.707031 18.074219 16.921875 17.992188 16.921875 17.992188 C 16.921875 17.992188 17.003906 17.125 16.058594 16.097656 C 15.640625 15.648438 14.167969 15.117188 13.464844 15.433594 C 14.449219 16.136719 14.722656 17.621094 14.339844 18.71875 C 13.160156 18.992188 12.257813 17.921875 8.648438 19.59375 C 8.648438 19.59375 11.546875 21.726563 11.605469 22.875 C 9.050781 22.550781 7.058594 23.367188 5.582031 24.625 C 7.058594 25 8.046875 26.425781 8.375 27.472656 C 6.894531 27.417969 5.089844 27.144531 3.558594 28.675781 C 4.761719 29.5 4.203125 31.066406 3 32 C 3 32 5.429688 46 19 46 C 19 43.609375 21 36 24 36 C 26.035156 36 27.886719 38.578125 28.832031 39.714844 C 30.011719 41.128906 30.855469 42.15625 31.707031 42.859375 L 30 45 C 30 45 32.320313 44.925781 34.0625 43.929688 C 34.371094 43.976563 34.695313 44 35.058594 44 C 37.046875 44 38 42.765625 38 42 C 38 42 37.8125 41.894531 37.503906 41.699219 C 37.980469 40.628906 38 39 38 39 L 35.910156 40.535156 C 35.71875 40.386719 35.527344 40.226563 35.328125 40.050781 C 35.984375 39.042969 36 37 36 37 L 33.828125 38.597656 C 33.664063 38.417969 33.503906 38.214844 33.34375 38.019531 C 33.980469 37.003906 34 35 34 35 L 32.195313 36.328125 C 32.015625 35.996094 31.832031 35.644531 31.660156 35.285156 C 31.984375 34.253906 32 33 32 33 L 30.953125 33.769531 C 30.152344 32.039063 29.292969 30.253906 28 29 C 28.960938 28.039063 32.84375 27.875 34.777344 29.773438 L 33 32 C 33 32 35.128906 31.984375 36.417969 31.433594 C 36.539063 31.542969 36.667969 31.644531 36.792969 31.753906 L 35 34 C 35 34 37.476563 33.992188 38.707031 33.308594 C 38.800781 33.378906 38.890625 33.449219 38.980469 33.515625 L 37 36 C 37 36 39.933594 35.980469 40.988281 35.09375 C 41.058594 35.144531 41.121094 35.199219 41.1875 35.253906 L 39 38 C 39 38 42.117188 37.984375 43.089844 37.015625 C 43.140625 37.078125 43.1875 37.136719 43.234375 37.199219 L 41 40 C 41 40 43.183594 40.058594 44.472656 39.4375 C 44.480469 39.457031 44.484375 39.472656 44.488281 39.488281 C 44.488281 39.488281 48 38.082031 48 35.160156 C 48 34.679688 47.984375 33.183594 46.847656 32.042969 C 46.386719 31.582031 45.925781 31.335938 45.539063 31.199219 C 46.519531 28.652344 45 26 45 26 C 45 26 44.585938 28.410156 43.132813 29.472656 L 37.933594 23.714844 C 37.933594 23.714844 38.476563 19.363281 36 18 C 30.664063 15.058594 32.621094 12 28.679688 12 C 27.148438 12 25.648438 14 24 14 C 23.546875 14 23.167969 14.03125 22.816406 14.070313 C 16.398438 9.28125 9.164063 8.144531 6.359375 7.523438 C 4.261719 7.058594 1.679688 5.023438 1.148438 5 Z M 18.511719 20.160156 C 19.1875 20.152344 19.898438 20.167969 20.59375 20.222656 C 21.109375 20.265625 21.386719 20.789063 21.304688 21.699219 C 21.207031 22.800781 20.394531 23.335938 20.003906 23.023438 C 17.378906 20.914063 14.652344 21.105469 14.703125 20.8125 C 14.757813 20.484375 16.480469 20.191406 18.511719 20.160156 Z M 32 22 C 34.171875 22 35 25 35 25 C 33.203125 25 30.886719 24.886719 29 23 C 29 23 30.644531 22 32 22 Z M 18.789063 24.140625 C 19.144531 24.1875 19.484375 24.507813 19.757813 25.136719 C 20.203125 26.152344 19.746094 27.011719 19.253906 26.921875 C 15.9375 26.332031 13.941406 28.015625 13.84375 27.734375 C 13.695313 27.3125 15.292969 25.332031 18.425781 24.1875 C 18.550781 24.140625 18.671875 24.125 18.789063 24.140625 Z M 17.902344 28.96875 C 18.191406 28.910156 18.539063 29.066406 18.921875 29.484375 C 19.535156 30.152344 19.410156 30.941406 19.003906 31.003906 C 16.269531 31.429688 15.167969 33.265625 15.019531 33.078125 C 14.792969 32.789063 15.503906 30.824219 17.632813 29.097656 C 17.714844 29.03125 17.804688 28.988281 17.902344 28.96875 Z"/></svg>